<?xml version="1.0" encoding="UTF-8" standalone="no"?>
<!-- Created with Inkscape (http://www.inkscape.org/) -->

<svg
   xmlns:dc="http://purl.org/dc/elements/1.1/"
   xmlns:cc="http://creativecommons.org/ns#"
   xmlns:rdf="http://www.w3.org/1999/02/22-rdf-syntax-ns#"
   xmlns:svg="http://www.w3.org/2000/svg"
   xmlns="http://www.w3.org/2000/svg"
   xmlns:sodipodi="http://sodipodi.sourceforge.net/DTD/sodipodi-0.dtd"
   xmlns:inkscape="http://www.inkscape.org/namespaces/inkscape"
   width="181.35027mm"
   height="181.41125mm"
   viewBox="0 0 181.35027 181.41125"
   version="1.1"
   id="svg8"
   inkscape:version="0.92.4 (5da689c313, 2019-01-14)"
   sodipodi:docname="logo.svg"
   inkscape:export-filename="/home/awt/code/fbw08/redux-react01/public/logo48.png"
   inkscape:export-xdpi="26.889999"
   inkscape:export-ydpi="26.889999">
  <defs
     id="defs2" />
  <sodipodi:namedview
     id="base"
     pagecolor="#ffffff"
     bordercolor="#666666"
     borderopacity="1.0"
     inkscape:pageopacity="0.0"
     inkscape:pageshadow="2"
     inkscape:zoom="0.58650314"
     inkscape:cx="161.05987"
     inkscape:cy="314.69481"
     inkscape:document-units="mm"
     inkscape:current-layer="layer1"
     showgrid="false"
     inkscape:window-width="1366"
     inkscape:window-height="731"
     inkscape:window-x="0"
     inkscape:window-y="18"
     inkscape:window-maximized="0"
     fit-margin-top="0"
     fit-margin-left="0"
     fit-margin-right="0"
     fit-margin-bottom="0" />
  <metadata
     id="metadata5">
    <rdf:RDF>
      <cc:Work
         rdf:about="">
        <dc:format>image/svg+xml</dc:format>
        <dc:type
           rdf:resource="http://purl.org/dc/dcmitype/StillImage" />
        <dc:title />
      </cc:Work>
    </rdf:RDF>
  </metadata>
  <g
     inkscape:label="Layer 1"
     inkscape:groupmode="layer"
     id="layer1"
     transform="translate(-14.324869,-57.794365)">
    <path
       inkscape:connector-curvature="0"
       id="path852"
       d="M 96.864664,224.35918 C 82.788783,222.87461 68.172717,216.78017 56.963407,207.72157 53.585932,204.99213 47.174694,198.45353 44.703862,195.21847 32.756328,179.57555 27.182557,160.09151 29.14001,140.81241 30.616226,126.27306 36.559032,111.86684 45.795229,100.43776 48.52467,97.060281 55.063283,90.649044 58.298345,88.178212 73.94125,76.230677 93.425296,70.656906 112.70439,72.61436 c 13.93207,1.414557 27.70119,6.90385 39.03972,15.563852 3.23506,2.470832 9.77368,8.882069 12.50312,12.259548 22.24961,27.53218 22.6982,66.49088 1.09137,94.78071 -2.47084,3.23506 -8.88207,9.77366 -12.25955,12.5031 -15.67043,12.66377 -36.22153,18.74621 -56.214386,16.63761 z"
       style="fill:#02cbe9;stroke-width:0.38141131" />
    <path
       inkscape:connector-curvature="0"
       id="path850"
       d="M 97.540808,238.93763 C 81.38241,237.24516 67.326074,232.31454 54.817132,223.95118 16.949617,198.63335 3.648135,149.60602 23.576987,108.80454 40.199625,74.772066 76.35964,54.488893 113.70903,58.246935 c 37.7312,3.796459 69.45247,30.642178 78.85453,66.734605 2.37615,9.12153 2.89646,13.34532 2.89646,23.5132 0,6.72164 -0.21575,10.55602 -0.77845,13.83487 -3.30104,19.23529 -11.18686,35.17326 -24.07742,48.66271 -13.93595,14.58343 -31.36825,23.75142 -51.51723,27.09391 -4.18432,0.69412 -17.88051,1.23534 -21.546112,0.8514 z m -8.214211,-42.55284 c 3.941768,-1.48368 7.705592,-3.77021 12.266973,-7.45225 2.41453,-1.94905 3.78103,-2.77418 4.15172,-2.50687 0.3039,0.21916 2.2564,1.78831 4.33887,3.48701 6.69162,5.45842 14.52357,8.59224 19.57886,7.83415 4.36366,-0.65437 8.23918,-5.4268 9.38064,-11.55161 0.66261,-3.55536 0.55785,-9.77778 -0.2418,-14.36333 -0.38344,-2.19881 -0.60721,-4.23224 -0.49727,-4.51875 0.10994,-0.2865 1.90354,-1.16863 3.98578,-1.96027 7.87641,-2.99455 14.36088,-7.65741 17.07291,-12.27682 1.72717,-2.94189 1.72173,-6.68358 -0.0141,-9.64015 -2.69061,-4.58301 -9.48347,-9.27195 -17.35543,-11.98001 -1.99585,-0.6866 -3.79967,-1.39722 -4.00849,-1.57915 -0.20882,-0.18195 -0.0557,-2.36839 0.3402,-4.8588 1.29109,-8.12084 0.71192,-16.09255 -1.48153,-20.39207 -0.49942,-0.97902 -1.7193,-2.51294 -2.71081,-3.40871 -5.23839,-4.732567 -14.14904,-2.451669 -25.13229,6.43322 l -3.87408,3.13393 -4.20763,-3.35947 c -8.67307,-6.92481 -17.566034,-9.943252 -22.823244,-7.746651 -2.236604,0.934511 -4.676535,3.705281 -5.791454,6.576741 -1.369243,3.52646 -1.705299,12.70031 -0.667952,18.23423 0.401153,2.14004 0.729371,4.21563 0.729371,4.61245 0,0.48759 -0.991403,1.05139 -3.058229,1.73919 -4.509504,1.50067 -7.614294,2.95632 -11.060375,5.18559 -11.476987,7.42442 -11.865542,16.35362 -1.047553,24.07318 2.912821,2.07854 8.577362,4.90235 12.784745,6.37325 1.309776,0.4579 2.381376,1.03979 2.381335,1.29309 -4.5e-5,0.25329 -0.306227,2.06042 -0.680404,4.01585 -0.843066,4.40579 -0.877834,13.35549 -0.06372,16.40318 1.274305,4.77046 3.6467,7.8917 6.930095,9.11755 2.428919,0.90684 6.950671,0.52171 10.774824,-0.9177 z m -8.569074,-3.30694 c -1.51496,-0.36454 -3.321045,-2.41111 -4.075394,-4.61806 -1.44496,-4.2274 -1.328012,-11.74706 0.278426,-17.90242 0.435839,-1.67002 0.524245,-1.73741 1.900235,-1.44867 0.793722,0.16647 4.189761,0.67247 7.546749,1.12427 5.416434,0.72898 6.182477,0.94071 6.804035,1.88065 0.38523,0.58255 2.027203,2.6685 3.648831,4.63542 5.328225,6.46278 4.869285,5.57739 3.599775,6.94465 -3.328181,3.58444 -10.316192,7.8666 -14.694933,9.00488 -2.754295,0.716 -3.403844,0.76521 -5.007724,0.37928 z m 44.679827,-0.17995 c -1.12266,-0.20982 -3.47006,-1.10832 -5.21643,-1.99669 -3.13224,-1.59334 -9.97683,-6.72867 -10.70682,-8.03309 -0.26412,-0.47196 0.2456,-1.3964 1.72043,-3.12015 1.15267,-1.34721 3.20415,-3.91945 4.55885,-5.71606 2.31084,-3.06468 2.59388,-3.28397 4.57931,-3.54795 1.16394,-0.15481 4.36158,-0.6499 7.10587,-1.10029 3.70222,-0.6076 5.12221,-0.68699 5.5035,-0.30766 1.41826,1.411 1.98186,13.3177 0.83821,17.70845 -1.37225,5.26841 -3.72476,6.98403 -8.38292,6.11344 z m -23.57748,-17.66551 c -1.51483,-1.76006 -2.635004,-3.39302 -2.489275,-3.62881 0.367014,-0.59385 10.966525,-0.55462 11.335225,0.042 0.3711,0.60045 -4.59863,6.78697 -5.45209,6.78697 -0.35179,0 -1.87902,-1.44004 -3.39386,-3.2001 z m -6.641696,-9.39431 c -0.921534,-0.60427 -5.033225,-7.26444 -7.683923,-12.44653 l -2.605601,-5.0939 1.869459,-3.64367 c 1.028203,-2.00401 3.271352,-5.88901 4.984781,-8.6333 l 3.115322,-4.98963 2.228503,-0.30045 c 2.972945,-0.40085 12.065325,-0.45204 15.552295,-0.0876 l 2.79722,0.29238 3.31912,5.26426 c 1.82552,2.89535 4.1178,6.74636 5.09396,8.55783 l 1.77484,3.29359 -1.81441,3.47942 c -2.70759,5.19224 -7.02107,12.47516 -8.07516,13.63414 -0.90695,0.99722 -1.14727,1.02045 -10.4882,1.01366 -5.25799,-0.003 -9.788682,-0.15687 -10.068206,-0.34021 z m 12.301276,-7.86485 c 2.49885,-0.62922 5.53858,-3.19579 6.62949,-5.59755 2.13088,-4.69135 0.0294,-10.59752 -4.61348,-12.96614 -2.36319,-1.20562 -6.65097,-1.20883 -9.00725,-0.007 -4.691168,2.39326 -6.776373,8.24005 -4.626661,12.97287 1.442364,3.17553 5.340171,5.85304 8.809431,6.05144 0.45086,0.0257 1.71467,-0.17847 2.80847,-0.45388 z m -25.077225,6.65436 c -1.568226,-0.30885 -3.058151,-0.76837 -3.310943,-1.02116 -0.5925,-0.5925 2.268919,-8.30765 3.08117,-8.30765 0.315272,0 1.17733,1.17369 1.915681,2.6082 0.738351,1.43453 1.954908,3.51321 2.703456,4.6193 0.748548,1.10609 1.257998,2.17772 1.132115,2.38141 -0.303955,0.4918 -2.052497,0.40311 -5.521479,-0.2801 z m 39.827475,0.0835 c 0.004,-0.31185 0.87167,-2.02758 1.92781,-3.81272 1.05613,-1.78513 2.27555,-3.89059 2.70982,-4.67881 0.43426,-0.78819 0.96618,-1.32394 1.18204,-1.19053 0.74006,0.45739 3.35822,8.04909 2.92524,8.48206 -0.33873,0.33873 -7.1267,1.76405 -8.41227,1.76638 -0.18712,3.5e-4 -0.3368,-0.25452 -0.33264,-0.56638 z m -52.774415,-3.51957 c -9.137215,-3.39236 -15.273497,-8.63217 -15.273497,-13.04216 0,-1.47118 1.572186,-4.06542 3.518048,-5.80507 3.071243,-2.74579 11.128358,-6.71422 14.861994,-7.32011 1.269143,-0.20595 1.531934,-0.0854 1.811534,0.83144 0.179877,0.58979 1.344918,3.66388 2.58899,6.83134 l 2.261943,5.75901 -2.017411,5.12745 c -1.109575,2.82009 -2.306808,5.92768 -2.660518,6.90577 -0.35371,0.97806 -0.84493,1.83509 -1.091598,1.90451 -0.24667,0.0694 -2.046436,-0.46707 -3.999485,-1.19218 z m 65.465585,-3.05765 c -0.81586,-2.18297 -2.05935,-5.25465 -2.76332,-6.82597 l -1.27995,-2.85691 2.26628,-5.76152 c 1.24646,-3.16884 2.45848,-6.22078 2.69338,-6.78213 0.56764,-1.35644 1.55172,-1.29216 5.76457,0.37648 4.77577,1.89162 8.08716,3.83324 10.71107,6.28039 3.8193,3.56203 4.34119,5.74922 2.18364,9.15133 -1.52312,2.4017 -3.73087,4.23414 -7.77988,6.45729 -3.03616,1.66704 -8.62313,3.93005 -9.70259,3.93005 -0.35123,0 -1.23887,-1.68312 -2.0932,-3.96901 z m -53.658162,-17.8859 c -1.444443,-3.46721 -2.218723,-6.36395 -1.810236,-6.77242 0.625309,-0.62532 7.88691,-1.904 8.305961,-1.4626 0.383417,0.40388 -4.668157,9.34052 -5.421899,9.59176 -0.245626,0.0819 -0.728847,-0.52865 -1.073826,-1.35674 z m 43.357062,-3.19524 c -1.5128,-2.56344 -2.6455,-4.83588 -2.51712,-5.04987 0.24401,-0.40671 2.33284,-0.17786 6.35652,0.6964 1.96268,0.42646 2.37723,0.68421 2.35768,1.46585 -0.0314,1.25385 -2.45916,7.21928 -3.01323,7.40398 -0.23832,0.0794 -1.67106,-1.95293 -3.18385,-4.51636 z M 76.741487,125.51698 c -2.128702,-9.3592 -0.965759,-18.46394 2.662002,-20.84094 1.99492,-1.30712 6.273587,-0.70264 10.725181,1.51523 3.515237,1.75136 10.1252,6.63509 10.94574,8.08719 0.24278,0.42964 -0.42778,1.56096 -2.078767,3.50713 -1.34044,1.5801 -3.283246,4.0182 -4.317351,5.41801 -1.0341,1.39981 -2.139864,2.71045 -2.45725,2.91253 -0.317385,0.20208 -2.822395,0.69948 -5.566689,1.10531 -2.744295,0.40583 -5.93828,0.88775 -7.097751,1.07092 l -2.108121,0.33302 z m 50.056673,2.08461 c -2.61956,-0.44444 -5.70369,-0.93445 -6.85363,-1.0889 -1.84182,-0.24741 -2.27316,-0.53525 -3.62206,-2.41722 -0.84219,-1.17502 -2.81006,-3.70928 -4.37303,-5.63171 -1.56298,-1.92243 -2.84177,-3.71474 -2.84177,-3.98289 0,-1.21582 6.81239,-6.30994 11.65682,-8.71667 3.00701,-1.49388 4.23467,-1.85724 6.41406,-1.89836 2.10586,-0.0397 2.91511,0.14754 3.70052,0.85635 3.36505,3.03686 4.33854,10.33157 2.6635,19.95851 -0.44746,2.57165 -1.05732,3.93458 -1.69693,3.79229 -0.15656,-0.0348 -2.42793,-0.42697 -5.04748,-0.8714 z m -27.669743,-2.22891 c 0,-0.7801 5.507243,-6.86982 6.052013,-6.6921 0.84494,0.27564 5.74684,6.30506 5.47871,6.7389 -0.34195,0.55331 -11.530723,0.50788 -11.530723,-0.0468 z"
       style="fill:#282a2a;stroke-width:0.45360231" />
    <path
       inkscape:connector-curvature="0"
       id="path864"
       d="m 80.315013,189.12192 c -5.212805,-0.66036 -9.799125,-2.75183 -13.034038,-5.94383 -3.572275,-3.52487 -5.242759,-7.5803 -5.554,-13.48346 -0.400926,-7.60417 1.976663,-13.44575 7.968604,-19.57834 2.021601,-2.06904 3.958326,-3.76159 4.303832,-3.76121 0.452853,3.8e-4 0.808606,0.71892 1.274572,2.57394 l 0.646378,2.57325 -2.491047,2.53815 c -4.504651,4.58984 -6.809008,9.33763 -6.809008,14.02896 0,7.06901 4.174458,12.87057 10.786532,14.99088 3.606608,1.15654 9.885286,1.15279 14.05491,-0.009 9.878332,-2.75097 20.365682,-10.71592 24.297042,-18.45313 0.59667,-1.1743 0.58676,-1.31959 -0.19176,-2.81323 -0.99585,-1.91057 -0.85612,-4.89665 0.30365,-6.48942 0.89666,-1.23142 3.75156,-2.76808 5.14269,-2.76808 1.41638,0 4.25179,1.54482 5.18526,2.82509 0.59838,0.82069 0.79412,1.67647 0.79412,3.4719 0,2.92457 -0.87668,4.34382 -3.52506,5.70673 -1.48996,0.76675 -2.13452,1.46553 -3.52548,3.82212 -6.81302,11.54268 -18.84014,19.30187 -32.233744,20.79535 -2.034044,0.22681 -3.922099,0.39043 -4.195675,0.36358 -0.273577,-0.0268 -1.712577,-0.20273 -3.197778,-0.39088 z m 38.715437,-0.16299 c -3.25516,-0.58914 -7.73812,-2.13544 -7.93911,-2.73841 -0.0708,-0.21249 0.91984,-1.2102 2.20149,-2.21713 l 2.33028,-1.83077 2.40581,0.79469 c 10.40873,3.43821 19.2862,0.58417 23.27272,-7.48201 2.37278,-4.80099 2.23862,-9.01464 -0.46937,-14.74193 -4.6189,-9.76877 -16.32195,-17.39457 -29.16654,-19.00515 -5.5237,-0.69261 -6.27204,-0.5951 -7.71317,1.00507 -3.16178,3.51068 -7.625697,3.2321 -10.257124,-0.64014 -0.752636,-1.10753 -0.885269,-1.71345 -0.761805,-3.48024 0.172291,-2.46553 0.990542,-3.79599 3.057446,-4.97134 1.542586,-0.87717 4.134443,-1.05039 5.470003,-0.36558 0.46344,0.23763 1.3634,0.91176 1.99992,1.49805 1.06747,0.98326 1.48667,1.08675 5.40073,1.33327 12.53202,0.7893 22.26931,4.97134 30.22005,12.97913 6.93691,6.98669 10.189,15.32095 8.99029,23.03977 -0.67283,4.33255 -2.25172,7.38696 -5.43469,10.51361 -5.8265,5.72343 -14.31235,7.99133 -23.60693,6.30911 z M 89.872395,172.56357 c -1.691716,-0.35363 -3.075621,-1.31802 -4.00864,-2.79345 -0.656361,-1.03795 -0.749492,-1.67634 -0.589254,-4.0392 0.182522,-2.6915 0.121416,-2.95218 -1.492081,-6.36515 -3.61838,-7.65385 -5.071955,-14.47646 -4.698646,-22.05391 0.575742,-11.68648 5.096762,-20.85624 12.834486,-26.03155 6.663897,-4.45708 14.53412,-5.01751 21.47623,-1.52927 5.09802,2.56163 10.12634,9.08266 12.1627,15.77334 1.02839,3.37888 1.79081,8.09303 1.37597,8.50787 -0.38943,0.38943 -4.36799,-0.66185 -4.98313,-1.31674 -0.22743,-0.24211 -0.7095,-1.74218 -1.07127,-3.33347 -0.36176,-1.59129 -1.4482,-4.49408 -2.4143,-6.45065 -4.82544,-9.77259 -12.71729,-12.52467 -22.394236,-7.8094 -4.630311,2.2562 -8.730835,8.14988 -10.592412,15.22447 -0.642908,2.44325 -0.814155,4.25134 -0.822073,8.67974 -0.01333,7.44882 1.108793,12.41569 4.205093,18.61323 1.127506,2.25682 1.441695,2.60505 2.356933,2.6124 0.580804,0.004 1.767561,0.33161 2.637237,0.72657 5.405062,2.45469 4.438871,10.56226 -1.382736,11.60288 -0.745686,0.13327 -1.915628,0.12539 -2.599871,-0.0176 z"
       style="fill:#8d69c6;stroke-width:0.38576639" />
    <path
       inkscape:connector-curvature="0"
       id="path862"
       d="m 121.7849,189.19472 c -1.16694,-0.1534 -1.94812,-0.31675 -1.73595,-0.36301 0.21218,-0.0462 -0.83916,-0.40538 -2.3363,-0.79801 -1.49714,-0.39264 -3.40669,-1.0019 -4.24343,-1.35392 l -1.52136,-0.64003 1.73595,-1.5183 c 1.20227,-1.05154 1.97314,-1.4544 2.50748,-1.31039 5.64887,1.52225 6.81212,1.72134 10.05727,1.72134 7.85343,0 12.9872,-3.24307 16.26934,-10.27757 0.91602,-1.96328 1.04991,-2.71545 1.02027,-5.73173 -0.0595,-6.05289 -2.44986,-10.97253 -8.05856,-16.58539 -7.13567,-7.14096 -17.26192,-11.36407 -27.28142,-11.3776 -3.74839,-0.004 -3.74998,-0.004 -4.6292,1.18982 -1.15733,1.57233 -2.58916,2.27732 -4.62159,2.27556 -2.812983,-0.003 -4.73641,-1.66801 -5.473414,-4.73963 -0.37342,-1.55631 0.949585,-4.31068 2.534766,-5.27712 2.369284,-1.4445 6.000518,-0.82304 7.365778,1.26063 0.56824,0.86722 0.89639,0.9399 5.16869,1.1448 9.89137,0.47435 18.26192,3.3516 25.57213,8.79005 11.92214,8.86948 16.70397,22.56017 11.32903,32.4357 -1.3155,2.41701 -4.53014,5.56619 -7.54071,7.38716 -2.39064,1.44602 -6.56146,2.97175 -8.15475,2.98313 -0.67557,0.004 -0.72119,0.0745 -0.24869,0.37985 0.4326,0.27958 0.22712,0.37546 -0.81413,0.37988 -0.76603,0.003 -2.15479,0.0729 -3.08613,0.15478 -0.93134,0.0819 -2.64812,0.0233 -3.81507,-0.13006 z m -41.514766,-0.33203 c 0.10645,-0.17224 -0.881479,-0.53199 -2.19539,-0.79943 -5.989428,-1.21921 -11.569658,-5.34419 -13.742807,-10.15889 -1.641525,-3.63686 -2.087469,-6.2145 -1.863838,-10.77332 0.217639,-4.4367 1.148923,-7.53641 3.428053,-11.41003 1.434127,-2.43744 7.455577,-8.77051 8.011994,-8.42663 0.19248,0.11898 0.545935,1.04141 0.785453,2.04987 l 0.43549,1.83359 -2.475576,2.57933 c -4.672553,4.86839 -6.611857,9.14694 -6.611857,14.58727 0,6.89213 3.869083,12.65738 10.113904,15.07058 3.010354,1.1633 10.229454,1.46735 14.311828,0.60279 9.776772,-2.07053 21.803732,-11.03539 26.070082,-19.43258 0.60251,-1.18588 0.59491,-1.3322 -0.14443,-2.78144 -1.5612,-3.0602 -0.62714,-6.59953 2.08079,-7.88452 4.54177,-2.15521 9.23219,1.90001 7.76085,6.70984 -0.43698,1.42848 -1.73691,2.70424 -3.56281,3.49654 -1.20314,0.52208 -1.83723,1.1311 -2.46189,2.36455 -3.4849,6.88126 -10.70581,13.94428 -18.03301,17.63871 -3.12016,1.57321 -9.697475,3.76966 -12.306889,4.1098 -1.10986,0.14463 -1.92419,0.4147 -1.809623,0.60007 0.114568,0.18537 -1.634933,0.33705 -3.887777,0.33705 -2.252845,0 -4.008989,-0.14099 -3.902544,-0.31315 z m 8.917507,-17.18724 c -2.705905,-1.2445 -3.906694,-3.76718 -3.216479,-6.75736 0.39883,-1.72782 0.347792,-1.94264 -1.186513,-4.99423 -3.739081,-7.43666 -5.241526,-14.21558 -4.9309,-22.24784 0.24754,-6.40097 1.328295,-10.91058 3.836736,-16.00931 2.233439,-4.53975 6.933045,-9.32851 11.090769,-11.30115 1.591286,-0.75499 3.542709,-1.49123 4.336497,-1.63611 0.793787,-0.14493 1.358079,-0.4012 1.253979,-0.56965 -0.23966,-0.38777 3.22962,-0.64928 5.87965,-0.4432 1.11036,0.0863 1.92469,0.30933 1.80962,0.49552 -0.11507,0.1862 0.10971,0.33853 0.49952,0.33853 1.15582,0 5.93478,2.4671 8.08295,4.17274 2.14303,1.70158 4.81713,5.20527 6.44079,8.43895 1.18619,2.36242 2.73779,7.55546 3.13607,10.4961 0.24003,1.77223 0.19513,2.0501 -0.30052,1.8599 -0.32048,-0.12306 -1.272,-0.43013 -2.11449,-0.68254 -1.53094,-0.45868 -1.53223,-0.46076 -2.34721,-3.78874 -2.30762,-9.42309 -8.30308,-16.11549 -15.10386,-16.85962 -2.77879,-0.30406 -7.182226,0.63161 -10.415697,2.21318 -4.7571,2.3268 -8.867818,7.87425 -10.815532,14.59566 -1.06851,3.68733 -1.468871,12.51534 -0.766435,16.89995 0.829856,5.17996 3.468174,12.34299 5.319928,14.44356 0.327317,0.3713 1.097622,0.67509 1.711788,0.67509 1.37924,0 2.906037,0.76927 4.132501,2.08211 1.968682,2.10732 1.32413,6.44611 -1.20334,8.10024 -1.324688,0.86697 -3.785724,1.09639 -5.129822,0.47822 z"
       style="fill:#7549bb;stroke-width:0.38576639" />
    <path
       sodipodi:nodetypes="cscscsscsccssscc"
       inkscape:connector-curvature="0"
       id="path858"
       d="m 97.503665,210.00768 c -2.249253,-0.48595 -3.254839,-1.49592 -6.92314,-6.95331 -1.552971,-2.31038 -4.780142,-7.09966 -7.171484,-10.64286 -4.927551,-7.30102 -5.348981,-8.03946 -5.348981,-9.37271 0,-2.45259 1.912459,-3.58284 4.735669,-2.79874 0.478706,0.13294 3.993754,1.76632 7.811217,3.62972 3.817471,1.8634 7.126541,3.38801 7.353494,3.38801 0.226953,0 2.29901,-1.38591 4.60458,-3.07981 2.30556,-1.69388 6.4584,-4.71926 9.22853,-6.72306 2.77013,-2.00379 7.25036,-5.27033 9.95607,-7.25898 5.35458,-3.93554 6.8684,-4.79493 8.24428,-4.68029 1.12992,0.0941 1.94604,1.19976 1.94604,2.63636 0,1.28348 -0.38792,1.88674 -6.90607,10.73981 -10.09638,13.71306 -15.71276,21.36391 -18.437,25.11558 -1.49693,2.06149 -3.02204,4.03241 -3.38915,4.37983 -1.3609,1.28791 -3.90196,2.00979 -5.704055,1.62045 z"
       style="fill:#ffffff;stroke-width:0.23426037" />
    <path
       sodipodi:nodetypes="ccssccscscscc"
       inkscape:connector-curvature="0"
       id="path856"
       d="m 97.267894,209.5279 c -1.077444,-0.32774 -1.981874,-0.9055 -2.83588,-1.81159 -1.46144,-1.55055 -15.472686,-22.54 -15.822735,-23.70314 -0.613773,-2.03942 0.448859,-3.54894 2.498306,-3.54894 1.52316,0 1.990984,0.19104 9.719664,3.96892 3.890473,1.90171 6.994361,3.28338 7.263468,3.23325 0.258455,-0.0482 6.879593,-4.75335 14.713653,-10.45603 7.83406,-5.70269 14.68555,-10.5691 15.22553,-10.81425 1.47601,-0.67012 2.58733,-0.60293 3.11253,0.18819 0.64312,0.96873 0.54849,2.16123 -0.27649,3.48459 -0.39158,0.62812 -6.78523,9.4173 -14.2081,19.53149 -9.02378,12.29554 -13.77125,18.57238 -14.32634,18.94152 -1.61956,1.07698 -3.537046,1.45035 -5.063606,0.98599 z"
       style="fill:#ffffff;stroke-width:0.23426037" />
  </g>
</svg>
