<?xml version="1.0" encoding="UTF-8" standalone="no"?>
<!-- Created with Inkscape (http://www.inkscape.org/) -->

<svg
   xmlns:dc="http://purl.org/dc/elements/1.1/"
   xmlns:cc="http://creativecommons.org/ns#"
   xmlns:rdf="http://www.w3.org/1999/02/22-rdf-syntax-ns#"
   xmlns:svg="http://www.w3.org/2000/svg"
   xmlns="http://www.w3.org/2000/svg"
   xmlns:sodipodi="http://sodipodi.sourceforge.net/DTD/sodipodi-0.dtd"
   xmlns:inkscape="http://www.inkscape.org/namespaces/inkscape"
   width="181.35027mm"
   height="181.41125mm"
   viewBox="0 0 181.35027 181.41125"
   version="1.1"
   id="svg8"
   inkscape:version="0.92.4 (5da689c313, 2019-01-14)"
   sodipodi:docname="logo.svg"
   inkscape:export-filename="/home/awt/code/fbw08/redux-react01/public/logo48.png"
   inkscape:export-xdpi="26.889999"
   inkscape:export-ydpi="26.889999">
  <defs
     id="defs2" />
  <sodipodi:namedview
     id="base"
     pagecolor="#ffffff"
     bordercolor="#666666"
     borderopacity="1.0"
     inkscape:pageopacity="0.0"
     inkscape:pageshadow="2"
     inkscape:zoom="0.35"
     inkscape:cx="-51.338267"
     inkscape:cy="330.136"
     inkscape:document-units="mm"
     inkscape:current-layer="layer1"
     showgrid="false"
     inkscape:window-width="1280"
     inkscape:window-height="731"
     inkscape:window-x="0"
     inkscape:window-y="18"
     inkscape:window-maximized="0"
     fit-margin-top="0"
     fit-margin-left="0"
     fit-margin-right="0"
     fit-margin-bottom="0" />
  <metadata
     id="metadata5">
    <rdf:RDF>
      <cc:Work
         rdf:about="">
        <dc:format>image/svg+xml</dc:format>
        <dc:type
           rdf:resource="http://purl.org/dc/dcmitype/StillImage" />
        <dc:title></dc:title>
      </cc:Work>
    </rdf:RDF>
  </metadata>
  <g
     inkscape:label="Layer 1"
     inkscape:groupmode="layer"
     id="layer1"
     transform="translate(-14.324869,-57.794365)">
    <g
       id="g896">
      <g
         transform="matrix(1.7144025,0,0,1.7144025,101.13722,-62.601268)"
         id="g848">
        <path
           inkscape:connector-curvature="0"
           id="path852"
           d="m -3.3903115,175.75719 c -9.7643765,-1.02983 -19.9034765,-5.25752 -27.6793255,-11.54143 -2.342939,-1.8934 -6.790386,-6.4292 -8.504391,-8.67335 -8.287952,-10.85142 -12.154452,-24.36741 -10.796575,-37.74124 1.024044,-10.08588 5.146542,-20.079409 11.553651,-28.007717 1.893401,-2.342939 6.429208,-6.790386 8.673356,-8.504391 10.851414,-8.287952 24.3674097,-12.154452 37.7412366,-10.796575 9.6646094,0.981272 19.2161834,4.78917 27.0816774,10.796575 2.244148,1.714005 6.779955,6.161452 8.673356,8.504391 15.434455,19.098957 15.745642,46.124427 0.757076,65.748957 -1.714005,2.24415 -6.161452,6.77995 -8.504391,8.67335 -10.870509,8.7848 -25.126718,13.00416 -38.9956705,11.54143 z"
           style="fill:#02cbe9;stroke-width:0.26458332" />
        <path
           inkscape:connector-curvature="0"
           id="path850"
           d="M -2.0977638,175.88571 C -11.522854,174.8985 -19.721825,172.0225 -27.018211,167.14421 -49.10609,152.37648 -56.864759,123.77915 -45.240387,99.97991 -35.544509,80.128986 -14.452604,68.297941 7.3330573,70.489983 29.341426,72.704433 47.84424,88.363369 53.328399,109.41585 c 1.385993,5.32053 1.689484,7.78424 1.689484,13.7151 0,3.92069 -0.125844,6.15726 -0.454062,8.06979 -1.925476,11.21982 -6.525226,20.51634 -14.044205,28.38465 -8.128753,8.50642 -18.296902,13.85405 -30.049672,15.8037 -2.440686,0.40488 -10.42958881,0.72057 -12.5677078,0.49662 z m -4.791297,-24.8208 c 2.2992079,-0.86542 4.4946224,-2.19914 7.15524844,-4.34685 1.40837706,-1.13687 2.20545016,-1.61816 2.42166766,-1.46224 0.1772655,0.12783 1.3161432,1.04311 2.53084,2.03395 3.9031781,3.18386 8.4715057,5.0118 11.4202207,4.56961 2.545297,-0.38169 4.805862,-3.16542 5.47167,-6.73798 0.386493,-2.07382 0.32539,-5.70332 -0.141044,-8.37804 -0.223658,-1.28255 -0.354182,-2.46864 -0.290055,-2.63576 0.06413,-0.16711 1.110324,-0.68165 2.324881,-1.14341 4.594261,-1.7467 8.37661,-4.46652 9.958519,-7.16099 1.007449,-1.71599 1.004274,-3.89849 -0.0082,-5.62304 -1.569418,-2.67324 -5.531646,-5.40827 -10.123309,-6.98786 -1.164167,-0.40049 -2.216325,-0.81499 -2.338131,-0.92111 -0.121804,-0.10613 -0.03251,-1.38147 0.198437,-2.83411 0.753084,-4.73683 0.415261,-9.38668 -0.864166,-11.894561 C 20.536209,96.971461 19.82466,96.076735 19.246321,95.554241 16.190804,92.793764 10.993277,94.124197 4.5868174,99.306697 L 2.3270906,101.1347 -0.12719219,99.175138 C -5.186139,95.135943 -10.373348,93.375305 -13.439845,94.656568 c -1.304597,0.545095 -2.727793,2.161268 -3.378118,3.83617 -0.798671,2.056962 -0.99469,7.408012 -0.389612,10.635912 0.23399,1.24827 0.425437,2.45895 0.425437,2.69041 0,0.28441 -0.578279,0.61327 -1.783845,1.01446 -2.630365,0.87533 -4.441369,1.7244 -6.451446,3.02472 -6.694453,4.33062 -6.921095,9.53896 -0.611031,14.04173 1.69903,1.2124 5.00312,2.85951 7.45726,3.71748 0.763984,0.26709 1.389041,0.6065 1.389017,0.75425 -2.6e-5,0.14774 -0.17862,1.20183 -0.396875,2.34242 -0.491755,2.56987 -0.512035,7.79017 -0.03717,9.56787 0.743294,2.78258 2.127097,4.60318 4.04228,5.31821 1.416773,0.52895 4.0542821,0.30431 6.2848862,-0.53529 z m -4.9982862,-1.92892 c -0.883666,-0.21263 -1.937144,-1.40638 -2.377151,-2.69368 -0.842836,-2.46582 -0.774621,-6.85199 0.162404,-10.44237 0.254222,-0.97411 0.305789,-1.01342 1.108395,-0.845 0.462973,0.0971 2.443861,0.39225 4.4019705,0.65578 3.1593709,0.42521 3.6061992,0.54871 3.9687498,1.09697 0.2247026,0.3398 1.1824546,1.55652 2.1283399,2.70381 3.10792007,3.7697 2.84022525,3.25326 2.09972797,4.05077 -1.94130867,2.09078 -6.01737087,4.58854 -8.57146237,5.25249 -1.6065628,0.41764 -1.9854408,0.44634 -2.9209738,0.22123 z m 26.061457,-0.10496 c -0.654843,-0.12239 -2.024062,-0.64648 -3.042708,-1.16466 -1.8270164,-0.92938 -5.8194226,-3.92479 -6.2452192,-4.68565 -0.1540642,-0.27529 0.1432534,-0.81451 1.0035143,-1.81996 0.6723433,-0.78582 1.8689584,-2.28619 2.6591444,-3.33414 1.3478985,-1.78761 1.5129955,-1.91552 2.6710875,-2.0695 0.678916,-0.0903 2.544077,-0.37908 4.144806,-0.64179 2.159484,-0.35441 2.987755,-0.40072 3.210155,-0.17946 0.827265,0.82303 1.156005,7.76813 0.488921,10.32923 -0.80042,3.07303 -2.172628,4.07374 -4.889701,3.56593 z M 0.42151922,138.72685 c -0.88359188,-1.02663 -1.53698302,-1.97913 -1.45198032,-2.11666 0.21407698,-0.34639 6.3967039,-0.32351 6.6117625,0.0245 0.2164636,0.35024 -2.6823483,3.9588 -3.1801671,3.9588 -0.205195,0 -1.0960232,-0.83997 -1.97961508,-1.8666 z m -3.87406072,-5.47964 c -0.5375248,-0.35247 -2.9358483,-4.2373 -4.4819832,-7.25998 l -1.5198301,-2.97124 1.0904431,-2.12533 c 0.5997442,-1.16893 1.908159,-3.43502 2.9075907,-5.03575 l 1.8171477,-2.91042 1.2998714,-0.17525 c 1.73410025,-0.23381 7.0376279,-0.26367 9.071554,-0.0511 l 1.631598,0.17054 1.9360249,3.07061 c 1.064813,1.68884 2.401887,3.93511 2.971276,4.99173 l 1.035251,1.92113 -1.058333,2.02952 c -1.579322,3.0286 -4.0953478,7.27668 -4.7101892,7.95271 -0.5290211,0.58167 -0.6691974,0.59522 -6.1177008,0.59126 -3.06695198,-0.002 -5.7096763,-0.0915 -5.8727205,-0.19844 z m 7.1752562,-4.58752 c 1.4575631,-0.36702 3.2306179,-1.86408 3.8669408,-3.26501 1.2429278,-2.73644 0.017145,-6.18147 -2.6910134,-7.56307 -1.3784342,-0.70323 -3.8794689,-0.7051 -5.25387337,-0.004 -2.73632863,1.39597 -3.95261553,4.80637 -2.69870223,7.56699 0.841322,1.85227 3.1148865,3.41404 5.1384859,3.52977 0.2629826,0.015 1.000154,-0.1041 1.6381623,-0.26475 z m -14.6273857,3.88145 c -0.914736,-0.18015 -1.7838,-0.44819 -1.931252,-0.59564 -0.345601,-0.3456 1.323446,-4.8458 1.797227,-4.8458 0.183896,0 0.686729,0.68461 1.1174045,1.52135 0.4306755,0.83675 1.1402853,2.04923 1.5769087,2.69441 0.4366233,0.64517 0.7337821,1.27025 0.660355,1.38906 -0.1772947,0.28686 -1.1972078,0.23513 -3.2206432,-0.16338 z m 23.231109,0.0487 c 0.0024,-0.1819 0.508442,-1.18267 1.124479,-2.22393 0.616037,-1.04126 1.327317,-2.26936 1.580621,-2.72912 0.253304,-0.45975 0.56357,-0.77225 0.68948,-0.69443 0.431668,0.26679 1.958829,4.69498 1.706271,4.94753 -0.197575,0.19758 -4.156958,1.02896 -4.906824,1.03032 -0.109141,2e-4 -0.196453,-0.14846 -0.194027,-0.33037 z m -30.782976,-2.05294 c -5.329679,-1.97874 -8.908933,-5.03509 -8.908933,-7.60741 0,-0.85813 0.917046,-2.37133 2.052055,-3.38606 1.791436,-1.6016 6.4911,-3.91636 8.668906,-4.26977 0.740283,-0.12013 0.893567,-0.0498 1.056656,0.48497 0.104921,0.34402 0.784482,2.13712 1.510141,3.98468 l 1.319377,3.35919 -1.176743,2.99081 c -0.647208,1.64494 -1.345546,3.45758 -1.551863,4.02809 -0.206317,0.5705 -0.492842,1.0704 -0.636722,1.11089 -0.143881,0.0405 -1.193673,-0.27244 -2.332874,-0.69539 z m 38.185655,-1.78351 c -0.475883,-1.27331 -1.201203,-3.065 -1.611826,-3.98154 l -0.746585,-1.66642 1.321908,-3.36066 c 0.727051,-1.84836 1.434013,-3.62854 1.57103,-3.95597 0.331097,-0.7912 0.905105,-0.75371 3.362433,0.2196 2.785681,1.10337 4.717193,2.2359 6.247699,3.66331 2.227773,2.07771 2.532192,3.35348 1.273704,5.33791 -0.888424,1.4009 -2.176193,2.46975 -4.537954,3.7665 -1.770969,0.97237 -5.029813,2.29237 -5.659458,2.29237 -0.204867,0 -0.722625,-0.98175 -1.220951,-2.3151 z m -31.298461,-10.43273 c -0.842534,-2.0224 -1.294167,-3.71205 -1.055899,-3.95031 0.364739,-0.36474 4.6003842,-1.11059 4.8448142,-0.85312 0.2236444,0.23558 -2.7229062,5.44826 -3.1625592,5.59481 -0.143272,0.0478 -0.425132,-0.30836 -0.626356,-0.79138 z m 25.289895,-1.86376 c -0.882404,-1.49524 -1.543103,-2.82074 -1.468218,-2.94556 0.142328,-0.23723 1.360731,-0.10374 3.707715,0.40621 1.144823,0.24875 1.386628,0.39909 1.375219,0.85502 -0.01831,0.73136 -1.434412,4.21096 -1.757592,4.31869 -0.139015,0.0463 -0.97472,-1.13913 -1.857124,-2.63436 z m -27.950426,-6.72873 c -1.241658,-5.45916 -0.563321,-10.769897 1.552729,-12.156388 1.163624,-0.762437 3.6593431,-0.409845 6.2559294,0.883827 2.0504149,1.021556 5.9059627,3.870201 6.38458069,4.717201 0.14161293,0.25061 -0.24952059,0.9105 -1.21253239,2.04569 -0.7818702,0.92166 -1.9150965,2.34379 -2.5182829,3.16029 -0.6031838,0.8165 -1.2481692,1.58099 -1.4332981,1.69886 -0.185129,0.11787 -1.6462851,0.408 -3.2470142,0.64472 -1.6007295,0.23672 -3.4637605,0.51782 -4.1400725,0.62466 l -1.229654,0.19425 z m 29.197735,1.21594 c -1.527968,-0.25924 -3.326923,-0.54506 -3.997676,-0.63515 -1.074325,-0.14431 -1.3259173,-0.31221 -2.1127272,-1.40995 -0.491244,-0.68538 -1.6390858,-2.1636 -2.5507579,-3.28494 -0.9116747,-1.12134 -1.657588,-2.16678 -1.657588,-2.32319 0,-0.70918 3.9736261,-3.68055 6.7993521,-5.084379 1.753965,-0.871373 2.470052,-1.083315 3.74128,-1.107302 1.22833,-0.02318 1.700365,0.08606 2.158489,0.499502 1.962809,1.77138 2.530641,6.026339 1.553601,11.641669 -0.260998,1.50003 -0.616727,2.29502 -0.989806,2.21202 -0.09132,-0.0203 -1.416198,-0.24905 -2.944167,-0.50828 z M -1.1717222,109.644 c 0,-0.45503 3.2123379,-4.00712 3.5300998,-3.90346 0.4928499,0.16078 3.3520987,3.6777 3.1956982,3.93076 -0.1994588,0.32274 -6.725798,0.29624 -6.725798,-0.0273 z"
           style="fill:#282a2a;stroke-width:0.26458332" />
      </g>
      <g
         transform="matrix(1.4580148,0,0,1.4580148,98.528699,-191.96897)"
         id="g860">
        <path
           inkscape:connector-curvature="0"
           id="path864"
           d="m -12.492113,261.37656 c -3.575276,-0.45292 -6.720868,-1.88738 -8.939579,-4.07666 -2.450095,-2.41758 -3.59582,-5.19906 -3.809289,-9.24782 -0.274981,-5.21543 1.355722,-9.22196 5.465379,-13.42808 1.386544,-1.41908 2.714874,-2.57994 2.951844,-2.57968 0.310596,2.6e-4 0.554594,0.49308 0.874183,1.76537 l 0.443328,1.7649 -1.70852,1.74083 c -3.089578,3.148 -4.670054,6.40434 -4.670054,9.62196 0,4.84838 2.863111,8.82746 7.398095,10.2817 2.473643,0.79323 6.7799625,0.79066 9.6397578,-0.006 6.7751946,-1.88679 13.9680935,-7.34966 16.6644702,-12.65634 0.409231,-0.80541 0.402439,-0.90506 -0.131524,-1.92949 -0.683014,-1.31039 -0.587182,-3.35844 0.208266,-4.45086 0.614982,-0.84459 2.573055,-1.89853 3.527185,-1.89853 0.971444,0 2.916152,1.05954 3.556386,1.93763 0.410406,0.56288 0.544655,1.14983 0.544655,2.38125 0,2.00586 -0.601281,2.97927 -2.417709,3.91404 -1.021914,0.52589 -1.46399,1.00516 -2.418004,2.62146 -4.672806,7.91671 -12.9217732,13.23846 -22.1079665,14.26278 -1.3950778,0.15556 -2.6900265,0.26778 -2.8776625,0.24937 -0.187637,-0.0184 -1.174595,-0.13905 -2.193241,-0.26809 z m 26.553525,-0.11179 c -2.232596,-0.40407 -5.3072929,-1.46462 -5.4451461,-1.87818 -0.04858,-0.14574 0.6308857,-0.83003 1.5099241,-1.52065 l 1.598253,-1.25566 1.650055,0.54505 c 7.138977,2.35815 13.227714,0.40066 15.961926,-5.13164 1.627402,-3.29283 1.535388,-6.18282 -0.321926,-10.11096 -3.167933,-6.70005 -11.194635,-11.93031 -20.0042781,-13.03495 -3.7885079,-0.47504 -4.3017704,-0.40816 -5.2901876,0.68934 -2.1685514,2.40785 -5.2301928,2.21678 -7.034994,-0.43905 -0.516206,-0.75961 -0.6071738,-1.17519 -0.5224947,-2.38697 0.1181683,-1.69102 0.6793773,-2.60353 2.0969928,-3.40966 1.05800392,-0.60162 2.8356626,-0.72043 3.7516818,-0.25074 0.3178546,0.16298 0.9351063,0.62534 1.3716688,1.02746 0.7321391,0.67438 1.0196539,0.74536 3.7041666,0.91444 8.5952624,0.54135 15.2737184,3.40966 20.7268494,8.90192 4.757777,4.79192 6.988268,10.50809 6.166115,15.80215 -0.461471,2.97154 -1.544371,5.06645 -3.727458,7.21091 -3.99619,3.92549 -9.816325,5.48096 -16.191148,4.32719 z M -5.9370481,250.01978 c -1.1602876,-0.24254 -2.1094583,-0.90398 -2.7493825,-1.91593 -0.4501743,-0.71189 -0.5140494,-1.14974 -0.4041481,-2.77034 0.1251857,-1.846 0.083275,-2.02479 -1.0233643,-4.36563 -2.481717,-5.2495 -3.478672,-9.92888 -3.222633,-15.12598 0.394881,-8.01534 3.495686,-14.30455 8.802713,-17.85411 4.57052758,-3.05695 9.9684297,-3.44133 14.729776,-1.04887 3.496545,1.75693 6.945289,6.22947 8.341958,10.81837 0.705337,2.31745 1.228251,5.55072 0.943729,5.83524 -0.267097,0.2671 -2.995845,-0.45394 -3.417747,-0.9031 -0.155991,-0.16606 -0.486625,-1.1949 -0.734746,-2.28631 -0.24812,-1.09141 -0.993269,-3.08233 -1.655886,-4.42427 -3.309597,-6.70267 -8.7223312,-8.59022 -15.3594008,-5.35619 -3.1757641,1.54745 -5.9881659,5.58971 -7.2649548,10.44192 -0.4409474,1.67574 -0.5583997,2.91584 -0.5638308,5.95312 -0.00914,5.10888 0.7604813,8.51548 2.8841229,12.76615 0.7733154,1.54787 0.9888064,1.78671 1.6165351,1.79175 0.3983527,0.003 1.2123068,0.22744 1.8087866,0.49833 3.70713767,1.68358 3.04446226,7.24427 -0.9483693,7.958 -0.5114393,0.0914 -1.3138602,0.086 -1.783158,-0.0121 z"
           style="fill:#8d69c6;stroke-width:0.26458332" />
        <path
           inkscape:connector-curvature="0"
           id="path862"
           d="m 15.950595,261.42649 c -0.800364,-0.10521 -1.336146,-0.21725 -1.190625,-0.24898 0.145521,-0.0317 -0.575553,-0.27803 -1.602388,-0.54732 -1.026835,-0.2693 -2.336522,-0.68717 -2.910417,-0.92861 l -1.0434447,-0.43897 1.1906247,-1.04135 c 0.824593,-0.72121 1.353307,-0.99752 1.719792,-0.89875 3.874354,1.04406 4.672187,1.18061 6.897918,1.18061 5.38639,0 8.907457,-2.22431 11.158561,-7.04902 0.628263,-1.34654 0.720095,-1.86243 0.699762,-3.93119 -0.0408,-4.15146 -1.680271,-7.52566 -5.527075,-11.37532 -4.894101,-4.89773 -11.839328,-7.79421 -18.7113486,-7.80349 -2.5708821,-0.003 -2.5719748,-0.003 -3.1749999,0.81606 -0.7937738,1.0784 -1.7758146,1.56193 -3.16978242,1.56072 -1.92932418,-0.002 -3.24853398,-1.14403 -3.75401808,-3.25074 -0.2561154,-1.06742 0.6512864,-2.95654 1.7385046,-3.61939 1.625007,-0.99073 4.1155378,-0.56449 5.0519247,0.86462 0.3897312,0.5948 0.6147991,0.64465 3.5450198,0.78518 6.7841309,0.32534 12.5251899,2.29874 17.5390039,6.02878 8.176964,6.08326 11.456649,15.47321 7.770172,22.24648 -0.902253,1.65774 -3.10706,3.81765 -5.171897,5.06659 -1.639655,0.99177 -4.500272,2.03822 -5.593054,2.04602 -0.463349,0.003 -0.494638,0.0511 -0.170566,0.26053 0.296706,0.19175 0.155773,0.25751 -0.558385,0.26054 -0.525391,0.002 -1.477891,0.05 -2.116666,0.10616 -0.638773,0.0562 -1.816251,0.016 -2.616616,-0.0892 z m -28.473489,-0.22773 c 0.07301,-0.11813 -0.604575,-0.36487 -1.505739,-0.5483 -4.107934,-0.83621 -7.935213,-3.66539 -9.425698,-6.96762 -1.125863,-2.49439 -1.43172,-4.2623 -1.27834,-7.38903 0.149271,-3.04297 0.788005,-5.16895 2.351179,-7.82573 0.983616,-1.67175 5.113512,-6.01538 5.495139,-5.77952 0.132015,0.0816 0.374437,0.71426 0.538714,1.40593 l 0.298687,1.25759 -1.697909,1.76907 c -3.204736,3.33906 -4.534835,6.27356 -4.534835,10.00489 0,4.72706 2.653665,8.68124 6.936763,10.33637 2.064694,0.79786 7.0160156,1.0064 9.815969,0.41343 6.7055382,-1.4201 14.9543972,-7.56878 17.880535,-13.32811 0.41324,-0.81335 0.408028,-0.91371 -0.09906,-1.90769 -1.070769,-2.09888 -0.430133,-4.52638 1.427138,-5.40771 3.115035,-1.47818 6.332027,1.30315 5.322888,4.60204 -0.299707,0.97974 -1.191287,1.85474 -2.443605,2.39815 -0.825187,0.35808 -1.260088,0.77578 -1.68852,1.62176 -2.390166,4.71961 -7.3427272,9.56388 -12.3681913,12.09776 -2.14000814,1.07901 -6.6511523,2.58547 -8.4408556,2.81876 -0.7612132,0.0992 -1.3197332,0.28443 -1.2411559,0.41157 0.078578,0.12714 -1.1213415,0.23117 -2.6664867,0.23117 -1.5451455,0 -2.7496215,-0.0967 -2.6766145,-0.21478 z m 6.1161978,-11.78811 c -1.8558835,-0.85356 -2.6794613,-2.58377 -2.2060678,-4.63463 0.2735435,-1.18505 0.2385386,-1.33239 -0.8137861,-3.42536 -2.5645019,-5.10054 -3.5949749,-9.74996 -3.3819279,-15.259 0.169779,-4.39019 0.91103,-7.48317 2.63148,-10.98021 1.5318355,-3.11365 4.7551262,-6.39809 7.6067601,-7.75105 1.0914062,-0.51782 2.42981686,-1.02278 2.97424733,-1.12215 0.54443048,-0.0994 0.93145507,-0.27517 0.86005727,-0.3907 -0.1643724,-0.26596 2.2150837,-0.44532 4.0326415,-0.30398 0.7615608,0.0592 1.3200803,0.21216 1.2411551,0.33986 -0.078923,0.12771 0.075248,0.23219 0.342601,0.23219 0.7927367,0 4.0704557,1.69209 5.5438067,2.86193 1.469829,1.16705 3.303897,3.57011 4.417504,5.78797 0.813568,1.6203 1.877754,5.18202 2.15092,7.1989 0.164629,1.21551 0.133834,1.40609 -0.206113,1.27564 -0.219811,-0.0844 -0.872424,-0.29501 -1.450253,-0.46813 -1.050017,-0.31459 -1.050901,-0.31602 -1.60987,-2.59856 -1.582714,-6.46296 -5.694786,-11.05304 -10.359197,-11.56341 -1.9058678,-0.20854 -4.92602834,0.4332 -7.1437499,1.51794 -3.2627242,1.59587 -6.0821181,5.40067 -7.417985,10.01064 -0.7328527,2.52901 -1.0074461,8.58382 -0.5256705,11.59107 0.5691682,3.55275 2.378696,8.46561 3.6487478,9.90632 0.2244945,0.25466 0.752819,0.46302 1.1740539,0.46302 0.9459711,0 1.9931464,0.52761 2.8343338,1.42804 1.35024814,1.44534 0.908173,4.42116 -0.8253277,5.55567 -0.9085562,0.59462 -2.5964922,0.75197 -3.5183606,0.32799 z"
           style="fill:#7549bb;stroke-width:0.26458332" />
      </g>
      <g
         style="fill:#ffffff"
         transform="matrix(0.88539354,0,0,0.88539354,239.49892,24.659752)"
         id="g854">
        <path
           sodipodi:nodetypes="cscscsscsccssscc"
           inkscape:connector-curvature="0"
           id="path858"
           d="m -160.3753,209.3396 c -2.5404,-0.54885 -3.67615,-1.68955 -7.81928,-7.85336 -1.75399,-2.60944 -5.39889,-8.01865 -8.09977,-12.02048 -5.56538,-8.24607 -6.04136,-9.0801 -6.04136,-10.58593 0,-2.77005 2.16001,-4.0466 5.34866,-3.16101 0.54067,0.15015 4.51071,1.99496 8.82231,4.09956 4.31161,2.1046 8.04901,3.82655 8.30534,3.82655 0.25633,0 2.5966,-1.5653 5.2006,-3.47846 2.604,-1.91314 7.29439,-5.33013 10.42309,-7.5933 3.12869,-2.26316 8.18885,-5.95253 11.24479,-8.19859 6.04769,-4.44496 7.75746,-5.4156 9.31143,-5.28612 1.27618,0.10633 2.19794,1.35506 2.19794,2.97762 0,1.44961 -0.43813,2.13096 -7.8,12.12998 -11.40327,15.4881 -17.74664,24.12928 -20.82351,28.36658 -1.69069,2.32833 -3.41322,4.55437 -3.82784,4.94675 -1.53706,1.45462 -4.40704,2.26994 -6.4424,1.83021 z"
           style="fill:#ffffff;stroke-width:0.26458332" />
        <path
           sodipodi:nodetypes="ccssccscscscc"
           inkscape:connector-curvature="0"
           id="path856"
           d="m -160.64159,208.79772 c -1.21691,-0.37017 -2.23841,-1.02271 -3.20296,-2.04609 -1.65061,-1.75125 -17.47549,-25.45761 -17.87085,-26.7713 -0.69322,-2.30341 0.50696,-4.00832 2.82169,-4.00832 1.72032,0 2.2487,0.21576 10.97779,4.48266 4.39406,2.14787 7.89972,3.70838 8.20366,3.65177 0.29191,-0.0544 7.7701,-5.36864 16.61821,-11.80948 8.84811,-6.44085 16.58646,-11.93717 17.19634,-12.21406 1.66707,-0.75686 2.92224,-0.68097 3.51542,0.21255 0.72636,1.09413 0.61949,2.44099 -0.31228,3.93564 -0.44227,0.70943 -7.66352,10.63629 -16.04721,22.05967 -10.19183,13.88709 -15.55382,20.97642 -16.18077,21.39334 -1.82919,1.21638 -3.99488,1.63808 -5.71904,1.11362 z"
           style="fill:#ffffff;stroke-width:0.26458332" />
      </g>
    </g>
  </g>
</svg>
